<svg width="8" height="15" viewBox="0 0 8 15" fill="none" xmlns="http://www.w3.org/2000/svg">
<path d="M0.280407 14.2768C0.654284 14.6507 1.25824 14.6507 1.63211 14.2768L4 11.9089L6.36789 14.2768C6.74176 14.6507 7.34572 14.6507 7.71959 14.2768C8.09347 13.9029 8.09347 13.299 7.71959 12.9251L4.68065 9.88616C4.30677 9.51228 3.70282 9.51228 3.32894 9.88616L0.289994 12.9251C-0.0934689 13.2894 -0.0934691 13.9029 0.280407 14.2768V14.2768ZM7.71959 0.280407C7.34572 -0.0934691 6.74176 -0.0934691 6.36789 0.280407L4 2.64829L1.63211 0.280407C1.25824 -0.0934691 0.654284 -0.0934691 0.280407 0.280407C-0.0934691 0.654284 -0.0934691 1.26782 0.280407 1.6417L3.31935 4.68065C3.69323 5.05452 4.29718 5.05452 4.67106 4.68065L7.71001 1.6417C8.09347 1.26782 8.09347 0.654284 7.71959 0.280407V0.280407Z" fill="black"/>
</svg>
