<svg width="8" height="17" viewBox="0 0 8 17" fill="none" xmlns="http://www.w3.org/2000/svg">
<path d="M4 2.32235L6.3583 4.68065C6.73217 5.05452 7.33613 5.05452 7.71001 4.68065C8.08388 4.30677 8.08388 3.70282 7.71001 3.32894L4.67106 0.280407C4.29718 -0.0934691 3.69323 -0.0934691 3.31935 0.280407L0.280407 3.32894C-0.0934691 3.70282 -0.0934691 4.30677 0.280407 4.68065C0.654284 5.05452 1.25824 5.05452 1.63211 4.68065L4 2.32235ZM4 14.1522L1.6417 11.7939C1.26783 11.42 0.663871 11.42 0.289994 11.7939C-0.0838823 12.1678 -0.0838823 12.7717 0.289994 13.1456L3.32894 16.1941C3.70282 16.568 4.30677 16.568 4.68065 16.1941L7.71959 13.1552C8.09347 12.7813 8.09347 12.1774 7.71959 11.8035C7.34572 11.4296 6.74176 11.4296 6.36789 11.8035L4 14.1522Z" fill="white"/>
</svg>
