<svg width="16" height="16" viewBox="0 0 16 16" fill="none" xmlns="http://www.w3.org/2000/svg">
<path d="M7.96713 2.03672V0.445764C7.96713 0.0458039 7.48718 -0.149732 7.21165 0.134684L4.72301 2.61444C4.54525 2.7922 4.54525 3.06772 4.72301 3.24548L7.20276 5.72524C7.48718 6.00076 7.96713 5.80523 7.96713 5.40527V3.81432C10.9091 3.81432 13.2999 6.20519 13.2999 9.14712C13.2999 11.5647 11.6734 13.6089 9.4692 14.2577C9.0959 14.3644 8.85593 14.7199 8.85593 15.1021C8.85593 15.6798 9.40698 16.1331 9.96693 15.9642C12.9177 15.1021 15.0775 12.3823 15.0775 9.14712C15.0775 5.21862 11.8956 2.03672 7.96713 2.03672Z" fill="white"/>
<path d="M2.63502 9.14717C2.63502 7.95618 3.02609 6.85406 3.69269 5.95638C3.95933 5.60086 3.92378 5.11202 3.6127 4.79205C3.23941 4.41875 2.59947 4.4543 2.2795 4.88093C1.3907 6.07192 0.857422 7.54733 0.857422 9.14717C0.857422 12.3824 3.01721 15.1021 5.96802 15.9643C6.52797 16.1331 7.07902 15.6798 7.07902 15.1021C7.07902 14.7199 6.83905 14.3644 6.46575 14.2578C4.26153 13.6089 2.63502 11.5647 2.63502 9.14717Z" fill="white"/>
</svg>
