<svg width="18" height="12" viewBox="0 0 18 12" fill="none" xmlns="http://www.w3.org/2000/svg">
<path d="M11.7948 5.44736C11.7948 7.19473 9.61054 8.50526 9.61054 9.81579H7.86317C7.86317 8.50526 5.67896 7.19473 5.67896 5.44736C5.67896 3.76114 7.05064 2.38946 8.73686 2.38946C10.4231 2.38946 11.7948 3.76114 11.7948 5.44736ZM9.61054 10.6895H7.86317V11.1263C7.86317 11.6068 8.25633 12 8.73686 12C9.21738 12 9.61054 11.6068 9.61054 11.1263V10.6895ZM17.4737 5.8842C17.4737 3.73493 16.6961 1.76914 15.4118 0.248928C15.1584 -0.048125 14.7129 -0.0830728 14.4333 0.196507C14.1974 0.432402 14.1712 0.816823 14.3809 1.07019C15.4904 2.36325 16.1632 4.04946 16.1632 5.8842C16.1632 7.71894 15.4904 9.40515 14.3809 10.7069C14.1624 10.9603 14.1974 11.3447 14.4333 11.5806C14.7129 11.8602 15.1584 11.8253 15.4118 11.5282C16.6961 9.99926 17.4737 8.03347 17.4737 5.8842ZM1.31053 5.8842C1.31053 4.04946 1.98327 2.36325 3.09285 1.06146C3.31127 0.808087 3.27632 0.423665 3.04043 0.18777C2.76958 -0.0830726 2.31527 -0.0568621 2.0619 0.240191C0.77758 1.76914 0 3.73493 0 5.8842C0 8.03347 0.77758 9.99926 2.0619 11.5282C2.31527 11.8253 2.76085 11.8602 3.04043 11.5806C3.27632 11.3447 3.30253 10.9603 3.09285 10.7069C1.98327 9.40515 1.31053 7.71894 1.31053 5.8842ZM13.5421 5.8842C13.5421 7.00252 13.1577 8.0422 12.5112 8.86347C12.3102 9.11684 12.3364 9.48378 12.5723 9.71968C12.8519 9.99926 13.315 9.97305 13.5596 9.65852C14.3634 8.61884 14.8527 7.30831 14.8527 5.8842C14.8527 4.46009 14.3634 3.14956 13.5509 2.11862C13.3062 1.80409 12.8432 1.77788 12.5636 2.05746C12.3364 2.28462 12.3015 2.65156 12.5024 2.91367C13.1577 3.7262 13.5421 4.76588 13.5421 5.8842ZM4.91011 9.71094C5.13727 9.48378 5.17222 9.11684 4.97127 8.85473C4.31601 8.0422 3.93159 7.00252 3.93159 5.8842C3.93159 4.76588 4.31601 3.7262 4.96253 2.90493C5.16348 2.65156 5.13727 2.28462 4.90138 2.04872C4.63053 1.77788 4.16748 1.80409 3.92285 2.10988C3.11032 3.14956 2.62106 4.46009 2.62106 5.8842C2.62106 7.30831 3.11032 8.61884 3.92285 9.65852C4.16748 9.96431 4.63053 9.99052 4.91011 9.71094Z" fill="white"/>
</svg>
