<svg width="17" height="7" viewBox="0 0 17 7" fill="none" xmlns="http://www.w3.org/2000/svg">
<path d="M9.2291 0.405273C7.11625 0.405273 5.20272 1.1946 3.72771 2.47826L2.22081 0.971358C1.71851 0.469058 0.857422 0.819871 0.857422 1.52947V5.98639C0.857422 6.42491 1.21621 6.7837 1.65472 6.7837H6.11165C6.82125 6.7837 7.18003 5.92261 6.67773 5.42031L5.15488 3.89746C6.26313 2.97259 7.67436 2.39853 9.23707 2.39853C11.7566 2.39853 13.9332 3.86557 14.9697 5.98639C15.185 6.43288 15.6952 6.65613 16.1656 6.49667C16.7317 6.31329 17.0188 5.66747 16.7636 5.12531C15.3923 2.33475 12.5379 0.405273 9.2291 0.405273Z" fill="white"/>
</svg>
